<?xml version="1.0" encoding="UTF-8" standalone="no"?>
<?xml-stylesheet type="text/css" href="https://wissenswandler.github.io/1.0.0/graph.css"?>
<!DOCTYPE svg PUBLIC "-//W3C//DTD SVG 1.1//EN"
 "http://www.w3.org/Graphics/SVG/1.1/DTD/svg11.dtd">
<!-- Generated by graphviz version 2.40.1 (20161225.0304)
 -->
<!-- Title: %3 Pages: 1 -->
<svg width="100%" 
 viewBox="0.00 0.00 202.00 195.00" xmlns="http://www.w3.org/2000/svg" xmlns:xlink="http://www.w3.org/1999/xlink">
<title>W</title>
<script xlink:href="https://wissenswandler.github.io/1.0.0/graph.js" type="text/ecmascript" />
<g id="graph0" class="graph" transform="scale(1 1) rotate(0) translate(4 191)">
<!-- 3b -->
<g id="3b" class="node">
<title>3b</title>
<g id="a_3b"><a xlink:title=" ">
<ellipse fill="#ffffff" stroke="#000000" cx="97" cy="-172.5" rx="0" ry="0"/>
</a>
</g>
</g>
<!-- 1 -->
<g id="1" class="node">
<title>1</title>
<g id="a_1"><a xlink:title=" ">
<path fill="#ffffff" stroke="transparent" d="M16,-187C16,-187 8,-187 8,-187 4,-187 0,-183 0,-179 0,-179 0,-166 0,-166 0,-162 4,-158 8,-158 8,-158 16,-158 16,-158 20,-158 24,-162 24,-166 24,-166 24,-179 24,-179 24,-183 20,-187 16,-187"/>
<text text-anchor="middle" x="12" y="-168.8" font-family="Helvetica,sans-Serif" font-size="14.00" fill="#000000">K</text>
</a>
</g>
</g>
<!-- 2 -->
<g id="2" class="node">
<title>2</title>
<g id="a_2"><a xlink:title=" ">
<path fill="#ffffff" stroke="transparent" d="M61,-29C61,-29 53,-29 53,-29 49,-29 45,-25 45,-21 45,-21 45,-8 45,-8 45,-4 49,0 53,0 53,0 61,0 61,0 65,0 69,-4 69,-8 69,-8 69,-21 69,-21 69,-25 65,-29 61,-29"/>
<text text-anchor="middle" x="57" y="-10.8" font-family="Helvetica,sans-Serif" font-size="14.00" fill="#000000">D</text>
</a>
</g>
</g>
<!-- 2&#45;&gt;1 -->
<g id="2___1" class="edge">
<title>2&#45;&gt;1</title>
<path fill="none" stroke="#228b22" stroke-width="6" d="M52.8472,-29.0811C45.1117,-56.2413 28.4238,-114.8341 18.9461,-148.1114"/>
<polygon fill="#228b22" stroke="#228b22" stroke-width="6" points="13.8328,-146.8985 16.1428,-157.9542 23.9312,-149.7748 13.8328,-146.8985"/>
</g>
<!-- 3 -->
<g id="3" class="node">
<title>3</title>
<g id="a_3"><a xlink:title=" ">
<path fill="#ffffff" stroke="transparent" d="M100,-108C100,-108 94,-108 94,-108 91,-108 88,-105 88,-102 88,-102 88,-85 88,-85 88,-82 91,-79 94,-79 94,-79 100,-79 100,-79 103,-79 106,-82 106,-85 106,-85 106,-102 106,-102 106,-105 103,-108 100,-108"/>
<text text-anchor="middle" x="97" y="-89.8" font-family="Helvetica,sans-Serif" font-size="14.00" fill="#000000">I</text>
</a>
</g>
</g>
<!-- 2&#45;&gt;3 -->
<g id="2___3" class="edge">
<title>2&#45;&gt;3</title>
<path fill="none" stroke="#228b22" stroke-width="6" d="M64.5237,-29.3593C70.3147,-40.7966 78.4293,-56.823 85.0984,-69.9944"/>
<polygon fill="#228b22" stroke="#228b22" stroke-width="6" points="80.4441,-72.4242 89.6452,-78.9742 89.8117,-67.6811 80.4441,-72.4242"/>
</g>
<!-- 3&#45;&gt;3b -->
<!-- 4 -->
<g id="4" class="node">
<title>4</title>
<g id="a_4"><a xlink:title=" ">
<path fill="#ffffff" stroke="transparent" d="M140,-29C140,-29 132,-29 132,-29 128,-29 124,-25 124,-21 124,-21 124,-8 124,-8 124,-4 128,0 132,0 132,0 140,0 140,0 144,0 148,-4 148,-8 148,-8 148,-21 148,-21 148,-25 144,-29 140,-29"/>
<text text-anchor="middle" x="136" y="-10.8" font-family="Helvetica,sans-Serif" font-size="14.00" fill="#000000">D</text>
</a>
</g>
</g>
<!-- 4&#45;&gt;3 -->
<g id="4___3" class="edge">
<title>4&#45;&gt;3</title>
<path fill="none" stroke="#228b22" stroke-width="6" d="M128.6644,-29.3593C123.0181,-40.7966 115.1064,-56.823 108.604,-69.9944"/>
<polygon fill="#228b22" stroke="#228b22" stroke-width="6" points="103.8901,-67.6833 104.1709,-78.9742 113.3053,-72.3314 103.8901,-67.6833"/>
</g>
<!-- 5 -->
<g id="5" class="node">
<title>5</title>
<g id="a_5"><a xlink:title=" ">
<path fill="#ffffff" stroke="transparent" d="M186,-187C186,-187 178,-187 178,-187 174,-187 170,-183 170,-179 170,-179 170,-166 170,-166 170,-162 174,-158 178,-158 178,-158 186,-158 186,-158 190,-158 194,-162 194,-166 194,-166 194,-179 194,-179 194,-183 190,-187 186,-187"/>
<text text-anchor="middle" x="182" y="-168.8" font-family="Helvetica,sans-Serif" font-size="14.00" fill="#000000">K</text>
</a>
</g>
</g>
<!-- 4&#45;&gt;5 -->
<g id="4___5" class="edge">
<title>4&#45;&gt;5</title>
<path fill="none" stroke="#228b22" stroke-width="6" d="M140.2451,-29.0811C148.1525,-56.2413 165.2112,-114.8341 174.8995,-148.1114"/>
<polygon fill="#228b22" stroke="#228b22" stroke-width="6" points="169.929,-149.8204 177.7651,-157.9542 180.0105,-146.8852 169.929,-149.8204"/>
</g>
</g>
</svg>
